<?xml version="1.0" encoding="UTF-8" standalone="no"?><svg xmlns="http://www.w3.org/2000/svg" xmlns:xlink="http://www.w3.org/1999/xlink" contentStyleType="text/css" height="602px" preserveAspectRatio="none" style="width:1151px;height:602px;background:#FFFFFF;" version="1.1" viewBox="0 0 1151 602" width="1151px" zoomAndPan="magnify"><defs/><g><!--MD5=[47de47a8b5f06cbc5e036fae0a9149b7]
class Iterable--><g id="elem_Iterable"><rect codeLine="2" fill="#F1F1F1" height="48" id="Iterable" rx="2.5" ry="2.5" style="stroke:#181818;stroke-width:0.5;" width="82" x="589" y="7"/><ellipse cx="604" cy="23" fill="#B4A7E5" rx="11" ry="11" style="stroke:#181818;stroke-width:1.0;"/><path d="M600.0313,29.5 L600.0313,27.7969 L602.3906,27.5313 L602.3906,19.3281 L600.0313,19.0625 L600.0313,17.3594 L607.1719,17.3594 L607.1719,19.0625 L604.75,19.3281 L604.75,27.5313 L607.1719,27.7969 L607.1719,29.5 L600.0313,29.5 Z " fill="#000000"/><text fill="#000000" font-family="sans-serif" font-size="14" font-style="italic" lengthAdjust="spacing" textLength="50" x="618" y="28.432">Iterable</text><line style="stroke:#181818;stroke-width:0.5;" x1="590" x2="670" y1="39" y2="39"/><line style="stroke:#181818;stroke-width:0.5;" x1="590" x2="670" y1="47" y2="47"/></g><!--MD5=[c160724f8e3bb89ca8141a12554ac2e3]
class Collection--><g id="elem_Collection"><rect codeLine="3" fill="#F1F1F1" height="48" id="Collection" rx="2.5" ry="2.5" style="stroke:#181818;stroke-width:0.5;" width="94" x="583" y="115"/><ellipse cx="598" cy="131" fill="#B4A7E5" rx="11" ry="11" style="stroke:#181818;stroke-width:1.0;"/><path d="M594.0313,137.5 L594.0313,135.7969 L596.3906,135.5313 L596.3906,127.3281 L594.0313,127.0625 L594.0313,125.3594 L601.1719,125.3594 L601.1719,127.0625 L598.75,127.3281 L598.75,135.5313 L601.1719,135.7969 L601.1719,137.5 L594.0313,137.5 Z " fill="#000000"/><text fill="#000000" font-family="sans-serif" font-size="14" font-style="italic" lengthAdjust="spacing" textLength="62" x="612" y="136.432">Collection</text><line style="stroke:#181818;stroke-width:0.5;" x1="584" x2="676" y1="147" y2="147"/><line style="stroke:#181818;stroke-width:0.5;" x1="584" x2="676" y1="155" y2="155"/></g><!--MD5=[3d4177ac58b4411586d067f34e84928f]
class List--><g id="elem_List"><rect codeLine="4" fill="#F1F1F1" height="48" id="List" rx="2.5" ry="2.5" style="stroke:#181818;stroke-width:0.5;" width="54" x="840" y="223"/><ellipse cx="855" cy="239" fill="#B4A7E5" rx="11" ry="11" style="stroke:#181818;stroke-width:1.0;"/><path d="M851.0313,245.5 L851.0313,243.7969 L853.3906,243.5313 L853.3906,235.3281 L851.0313,235.0625 L851.0313,233.3594 L858.1719,233.3594 L858.1719,235.0625 L855.75,235.3281 L855.75,243.5313 L858.1719,243.7969 L858.1719,245.5 L851.0313,245.5 Z " fill="#000000"/><text fill="#000000" font-family="sans-serif" font-size="14" font-style="italic" lengthAdjust="spacing" textLength="22" x="869" y="244.432">List</text><line style="stroke:#181818;stroke-width:0.5;" x1="841" x2="893" y1="255" y2="255"/><line style="stroke:#181818;stroke-width:0.5;" x1="841" x2="893" y1="263" y2="263"/></g><!--MD5=[73145e46247802284b2f7aaef1fa1797]
class Set--><g id="elem_Set"><rect codeLine="5" fill="#F1F1F1" height="48" id="Set" rx="2.5" ry="2.5" style="stroke:#181818;stroke-width:0.5;" width="51" x="372.5" y="223"/><ellipse cx="387.5" cy="239" fill="#B4A7E5" rx="11" ry="11" style="stroke:#181818;stroke-width:1.0;"/><path d="M383.5313,245.5 L383.5313,243.7969 L385.8906,243.5313 L385.8906,235.3281 L383.5313,235.0625 L383.5313,233.3594 L390.6719,233.3594 L390.6719,235.0625 L388.25,235.3281 L388.25,243.5313 L390.6719,243.7969 L390.6719,245.5 L383.5313,245.5 Z " fill="#000000"/><text fill="#000000" font-family="sans-serif" font-size="14" font-style="italic" lengthAdjust="spacing" textLength="19" x="401.5" y="244.432">Set</text><line style="stroke:#181818;stroke-width:0.5;" x1="373.5" x2="422.5" y1="255" y2="255"/><line style="stroke:#181818;stroke-width:0.5;" x1="373.5" x2="422.5" y1="263" y2="263"/></g><!--MD5=[c671e22bb1cd81cc807e7f83f36310d2]
class SortedSet--><g id="elem_SortedSet"><rect codeLine="6" fill="#F1F1F1" height="48" id="SortedSet" rx="2.5" ry="2.5" style="stroke:#181818;stroke-width:0.5;" width="92" x="289" y="331"/><ellipse cx="304" cy="347" fill="#B4A7E5" rx="11" ry="11" style="stroke:#181818;stroke-width:1.0;"/><path d="M300.0313,353.5 L300.0313,351.7969 L302.3906,351.5313 L302.3906,343.3281 L300.0313,343.0625 L300.0313,341.3594 L307.1719,341.3594 L307.1719,343.0625 L304.75,343.3281 L304.75,351.5313 L307.1719,351.7969 L307.1719,353.5 L300.0313,353.5 Z " fill="#000000"/><text fill="#000000" font-family="sans-serif" font-size="14" font-style="italic" lengthAdjust="spacing" textLength="60" x="318" y="352.432">SortedSet</text><line style="stroke:#181818;stroke-width:0.5;" x1="290" x2="380" y1="363" y2="363"/><line style="stroke:#181818;stroke-width:0.5;" x1="290" x2="380" y1="371" y2="371"/></g><!--MD5=[9a382033cbbfde0ee4ba2c7fe290f50d]
class NavigableSet--><g id="elem_NavigableSet"><rect codeLine="7" fill="#F1F1F1" height="48" id="NavigableSet" rx="2.5" ry="2.5" style="stroke:#181818;stroke-width:0.5;" width="115" x="286.5" y="439"/><ellipse cx="301.5" cy="455" fill="#B4A7E5" rx="11" ry="11" style="stroke:#181818;stroke-width:1.0;"/><path d="M297.5313,461.5 L297.5313,459.7969 L299.8906,459.5313 L299.8906,451.3281 L297.5313,451.0625 L297.5313,449.3594 L304.6719,449.3594 L304.6719,451.0625 L302.25,451.3281 L302.25,459.5313 L304.6719,459.7969 L304.6719,461.5 L297.5313,461.5 Z " fill="#000000"/><text fill="#000000" font-family="sans-serif" font-size="14" font-style="italic" lengthAdjust="spacing" textLength="83" x="315.5" y="460.432">NavigableSet</text><line style="stroke:#181818;stroke-width:0.5;" x1="287.5" x2="400.5" y1="471" y2="471"/><line style="stroke:#181818;stroke-width:0.5;" x1="287.5" x2="400.5" y1="479" y2="479"/></g><!--MD5=[15b0de36700cf8bf422172734e699e19]
class Queue--><g id="elem_Queue"><rect codeLine="8" fill="#F1F1F1" height="48" id="Queue" rx="2.5" ry="2.5" style="stroke:#181818;stroke-width:0.5;" width="72" x="594" y="223"/><ellipse cx="609" cy="239" fill="#B4A7E5" rx="11" ry="11" style="stroke:#181818;stroke-width:1.0;"/><path d="M605.0313,245.5 L605.0313,243.7969 L607.3906,243.5313 L607.3906,235.3281 L605.0313,235.0625 L605.0313,233.3594 L612.1719,233.3594 L612.1719,235.0625 L609.75,235.3281 L609.75,243.5313 L612.1719,243.7969 L612.1719,245.5 L605.0313,245.5 Z " fill="#000000"/><text fill="#000000" font-family="sans-serif" font-size="14" font-style="italic" lengthAdjust="spacing" textLength="40" x="623" y="244.432">Queue</text><line style="stroke:#181818;stroke-width:0.5;" x1="595" x2="665" y1="255" y2="255"/><line style="stroke:#181818;stroke-width:0.5;" x1="595" x2="665" y1="263" y2="263"/></g><!--MD5=[efca02d9d8d28b5361c3ca96ec018e12]
class Deque--><g id="elem_Deque"><rect codeLine="9" fill="#F1F1F1" height="48" id="Deque" rx="2.5" ry="2.5" style="stroke:#181818;stroke-width:0.5;" width="71" x="837.5" y="331"/><ellipse cx="852.5" cy="347" fill="#B4A7E5" rx="11" ry="11" style="stroke:#181818;stroke-width:1.0;"/><path d="M848.5313,353.5 L848.5313,351.7969 L850.8906,351.5313 L850.8906,343.3281 L848.5313,343.0625 L848.5313,341.3594 L855.6719,341.3594 L855.6719,343.0625 L853.25,343.3281 L853.25,351.5313 L855.6719,351.7969 L855.6719,353.5 L848.5313,353.5 Z " fill="#000000"/><text fill="#000000" font-family="sans-serif" font-size="14" font-style="italic" lengthAdjust="spacing" textLength="39" x="866.5" y="352.432">Deque</text><line style="stroke:#181818;stroke-width:0.5;" x1="838.5" x2="907.5" y1="363" y2="363"/><line style="stroke:#181818;stroke-width:0.5;" x1="838.5" x2="907.5" y1="371" y2="371"/></g><!--MD5=[4dfc6a72b8dd60daa1b635d583ff79da]
class Map--><g id="elem_Map"><rect codeLine="10" fill="#F1F1F1" height="48" id="Map" rx="2.5" ry="2.5" style="stroke:#181818;stroke-width:0.5;" width="60" x="106" y="7"/><ellipse cx="121" cy="23" fill="#B4A7E5" rx="11" ry="11" style="stroke:#181818;stroke-width:1.0;"/><path d="M117.0313,29.5 L117.0313,27.7969 L119.3906,27.5313 L119.3906,19.3281 L117.0313,19.0625 L117.0313,17.3594 L124.1719,17.3594 L124.1719,19.0625 L121.75,19.3281 L121.75,27.5313 L124.1719,27.7969 L124.1719,29.5 L117.0313,29.5 Z " fill="#000000"/><text fill="#000000" font-family="sans-serif" font-size="14" font-style="italic" lengthAdjust="spacing" textLength="28" x="135" y="28.432">Map</text><line style="stroke:#181818;stroke-width:0.5;" x1="107" x2="165" y1="39" y2="39"/><line style="stroke:#181818;stroke-width:0.5;" x1="107" x2="165" y1="47" y2="47"/></g><!--MD5=[82a1b78fc4eaf0755f18128e01c736c5]
class SortedMap--><g id="elem_SortedMap"><rect codeLine="11" fill="#F1F1F1" height="48" id="SortedMap" rx="2.5" ry="2.5" style="stroke:#181818;stroke-width:0.5;" width="101" x="18.5" y="115"/><ellipse cx="33.5" cy="131" fill="#B4A7E5" rx="11" ry="11" style="stroke:#181818;stroke-width:1.0;"/><path d="M29.5313,137.5 L29.5313,135.7969 L31.8906,135.5313 L31.8906,127.3281 L29.5313,127.0625 L29.5313,125.3594 L36.6719,125.3594 L36.6719,127.0625 L34.25,127.3281 L34.25,135.5313 L36.6719,135.7969 L36.6719,137.5 L29.5313,137.5 Z " fill="#000000"/><text fill="#000000" font-family="sans-serif" font-size="14" font-style="italic" lengthAdjust="spacing" textLength="69" x="47.5" y="136.432">SortedMap</text><line style="stroke:#181818;stroke-width:0.5;" x1="19.5" x2="118.5" y1="147" y2="147"/><line style="stroke:#181818;stroke-width:0.5;" x1="19.5" x2="118.5" y1="155" y2="155"/></g><!--MD5=[bd12bf7cdc8e6d867dd140d8bb13d9a9]
class NavigableMap--><g id="elem_NavigableMap"><rect codeLine="12" fill="#F1F1F1" height="48" id="NavigableMap" rx="2.5" ry="2.5" style="stroke:#181818;stroke-width:0.5;" width="124" x="7" y="223"/><ellipse cx="22" cy="239" fill="#B4A7E5" rx="11" ry="11" style="stroke:#181818;stroke-width:1.0;"/><path d="M18.0313,245.5 L18.0313,243.7969 L20.3906,243.5313 L20.3906,235.3281 L18.0313,235.0625 L18.0313,233.3594 L25.1719,233.3594 L25.1719,235.0625 L22.75,235.3281 L22.75,243.5313 L25.1719,243.7969 L25.1719,245.5 L18.0313,245.5 Z " fill="#000000"/><text fill="#000000" font-family="sans-serif" font-size="14" font-style="italic" lengthAdjust="spacing" textLength="92" x="36" y="244.432">NavigableMap</text><line style="stroke:#181818;stroke-width:0.5;" x1="8" x2="130" y1="255" y2="255"/><line style="stroke:#181818;stroke-width:0.5;" x1="8" x2="130" y1="263" y2="263"/></g><!--MD5=[ab8871ed637f40707b866ba6597734bc]
class ArrayList--><g id="elem_ArrayList"><rect codeLine="14" fill="#F1F1F1" height="48" id="ArrayList" rx="2.5" ry="2.5" style="stroke:#181818;stroke-width:0.5;" width="91" x="1053.5" y="331"/><ellipse cx="1068.5" cy="347" fill="#ADD1B2" rx="11" ry="11" style="stroke:#181818;stroke-width:1.0;"/><path d="M1067.9688,353.9219 Q1066.2188,353.9219 1065.0781,353.1875 Q1063.9531,352.4375 1063.3906,351.0938 Q1062.8438,349.7344 1062.8438,347.9375 Q1062.8438,345.9063 1063.5,344.4531 Q1064.1563,343 1065.4375,342.2188 Q1066.7188,341.4375 1068.5938,341.4375 Q1069.4844,341.4375 1070.1563,341.625 Q1070.8281,341.7969 1071.5156,342.1406 L1070.7031,344.1563 Q1070.0781,343.8438 1069.5313,343.7188 Q1069,343.5938 1068.5156,343.5938 Q1067.3438,343.5938 1066.6406,344.125 Q1065.9375,344.6563 1065.6406,345.6094 Q1065.3438,346.5625 1065.3438,347.8281 Q1065.3438,349.8438 1066.0625,350.8125 Q1066.7813,351.7656 1068.375,351.7656 Q1068.9688,351.7656 1069.5938,351.6094 Q1070.2188,351.4531 1071.0469,351.0781 L1071.0469,353.2969 Q1070.3125,353.6094 1069.5156,353.7656 Q1068.7344,353.9219 1067.9688,353.9219 Z " fill="#000000"/><text fill="#000000" font-family="sans-serif" font-size="14" lengthAdjust="spacing" textLength="59" x="1082.5" y="352.432">ArrayList</text><line style="stroke:#181818;stroke-width:0.5;" x1="1054.5" x2="1143.5" y1="363" y2="363"/><line style="stroke:#181818;stroke-width:0.5;" x1="1054.5" x2="1143.5" y1="371" y2="371"/></g><!--MD5=[a046d640d88ed63f622f54ae7bf961fb]
class LinkedList--><g id="elem_LinkedList"><rect codeLine="15" fill="#F1F1F1" height="48" id="LinkedList" rx="2.5" ry="2.5" style="stroke:#181818;stroke-width:0.5;" width="99" x="703.5" y="331"/><ellipse cx="718.5" cy="347" fill="#ADD1B2" rx="11" ry="11" style="stroke:#181818;stroke-width:1.0;"/><path d="M717.9688,353.9219 Q716.2188,353.9219 715.0781,353.1875 Q713.9531,352.4375 713.3906,351.0938 Q712.8438,349.7344 712.8438,347.9375 Q712.8438,345.9063 713.5,344.4531 Q714.1563,343 715.4375,342.2188 Q716.7188,341.4375 718.5938,341.4375 Q719.4844,341.4375 720.1563,341.625 Q720.8281,341.7969 721.5156,342.1406 L720.7031,344.1563 Q720.0781,343.8438 719.5313,343.7188 Q719,343.5938 718.5156,343.5938 Q717.3438,343.5938 716.6406,344.125 Q715.9375,344.6563 715.6406,345.6094 Q715.3438,346.5625 715.3438,347.8281 Q715.3438,349.8438 716.0625,350.8125 Q716.7813,351.7656 718.375,351.7656 Q718.9688,351.7656 719.5938,351.6094 Q720.2188,351.4531 721.0469,351.0781 L721.0469,353.2969 Q720.3125,353.6094 719.5156,353.7656 Q718.7344,353.9219 717.9688,353.9219 Z " fill="#000000"/><text fill="#000000" font-family="sans-serif" font-size="14" lengthAdjust="spacing" textLength="67" x="732.5" y="352.432">LinkedList</text><line style="stroke:#181818;stroke-width:0.5;" x1="704.5" x2="801.5" y1="363" y2="363"/><line style="stroke:#181818;stroke-width:0.5;" x1="704.5" x2="801.5" y1="371" y2="371"/></g><!--MD5=[ea775af43a0da7cb543d6bee4ab62c40]
class Vector--><g id="elem_Vector"><rect codeLine="16" fill="#F1F1F1" height="48" id="Vector" rx="2.5" ry="2.5" style="stroke:#181818;stroke-width:0.5;" width="74" x="944" y="331"/><ellipse cx="959" cy="347" fill="#ADD1B2" rx="11" ry="11" style="stroke:#181818;stroke-width:1.0;"/><path d="M958.4688,353.9219 Q956.7188,353.9219 955.5781,353.1875 Q954.4531,352.4375 953.8906,351.0938 Q953.3438,349.7344 953.3438,347.9375 Q953.3438,345.9063 954,344.4531 Q954.6563,343 955.9375,342.2188 Q957.2188,341.4375 959.0938,341.4375 Q959.9844,341.4375 960.6563,341.625 Q961.3281,341.7969 962.0156,342.1406 L961.2031,344.1563 Q960.5781,343.8438 960.0313,343.7188 Q959.5,343.5938 959.0156,343.5938 Q957.8438,343.5938 957.1406,344.125 Q956.4375,344.6563 956.1406,345.6094 Q955.8438,346.5625 955.8438,347.8281 Q955.8438,349.8438 956.5625,350.8125 Q957.2813,351.7656 958.875,351.7656 Q959.4688,351.7656 960.0938,351.6094 Q960.7188,351.4531 961.5469,351.0781 L961.5469,353.2969 Q960.8125,353.6094 960.0156,353.7656 Q959.2344,353.9219 958.4688,353.9219 Z " fill="#000000"/><text fill="#000000" font-family="sans-serif" font-size="14" lengthAdjust="spacing" textLength="42" x="973" y="352.432">Vector</text><line style="stroke:#181818;stroke-width:0.5;" x1="945" x2="1017" y1="363" y2="363"/><line style="stroke:#181818;stroke-width:0.5;" x1="945" x2="1017" y1="371" y2="371"/></g><!--MD5=[1a47157467d69c83c0a10e9152875283]
class Stack--><g id="elem_Stack"><rect codeLine="17" fill="#F1F1F1" height="48" id="Stack" rx="2.5" ry="2.5" style="stroke:#181818;stroke-width:0.5;" width="67" x="955.5" y="439"/><ellipse cx="970.5" cy="455" fill="#ADD1B2" rx="11" ry="11" style="stroke:#181818;stroke-width:1.0;"/><path d="M969.9688,461.9219 Q968.2188,461.9219 967.0781,461.1875 Q965.9531,460.4375 965.3906,459.0938 Q964.8438,457.7344 964.8438,455.9375 Q964.8438,453.9063 965.5,452.4531 Q966.1563,451 967.4375,450.2188 Q968.7188,449.4375 970.5938,449.4375 Q971.4844,449.4375 972.1563,449.625 Q972.8281,449.7969 973.5156,450.1406 L972.7031,452.1563 Q972.0781,451.8438 971.5313,451.7188 Q971,451.5938 970.5156,451.5938 Q969.3438,451.5938 968.6406,452.125 Q967.9375,452.6563 967.6406,453.6094 Q967.3438,454.5625 967.3438,455.8281 Q967.3438,457.8438 968.0625,458.8125 Q968.7813,459.7656 970.375,459.7656 Q970.9688,459.7656 971.5938,459.6094 Q972.2188,459.4531 973.0469,459.0781 L973.0469,461.2969 Q972.3125,461.6094 971.5156,461.7656 Q970.7344,461.9219 969.9688,461.9219 Z " fill="#000000"/><text fill="#000000" font-family="sans-serif" font-size="14" lengthAdjust="spacing" textLength="35" x="984.5" y="460.432">Stack</text><line style="stroke:#181818;stroke-width:0.5;" x1="956.5" x2="1021.5" y1="471" y2="471"/><line style="stroke:#181818;stroke-width:0.5;" x1="956.5" x2="1021.5" y1="479" y2="479"/></g><!--MD5=[081e18de64b05ec8ae686bcc1669da5e]
class HashSet--><g id="elem_HashSet"><rect codeLine="18" fill="#F1F1F1" height="48" id="HashSet" rx="2.5" ry="2.5" style="stroke:#181818;stroke-width:0.5;" width="87" x="150.5" y="331"/><ellipse cx="165.5" cy="347" fill="#ADD1B2" rx="11" ry="11" style="stroke:#181818;stroke-width:1.0;"/><path d="M164.9688,353.9219 Q163.2188,353.9219 162.0781,353.1875 Q160.9531,352.4375 160.3906,351.0938 Q159.8438,349.7344 159.8438,347.9375 Q159.8438,345.9063 160.5,344.4531 Q161.1563,343 162.4375,342.2188 Q163.7188,341.4375 165.5938,341.4375 Q166.4844,341.4375 167.1563,341.625 Q167.8281,341.7969 168.5156,342.1406 L167.7031,344.1563 Q167.0781,343.8438 166.5313,343.7188 Q166,343.5938 165.5156,343.5938 Q164.3438,343.5938 163.6406,344.125 Q162.9375,344.6563 162.6406,345.6094 Q162.3438,346.5625 162.3438,347.8281 Q162.3438,349.8438 163.0625,350.8125 Q163.7813,351.7656 165.375,351.7656 Q165.9688,351.7656 166.5938,351.6094 Q167.2188,351.4531 168.0469,351.0781 L168.0469,353.2969 Q167.3125,353.6094 166.5156,353.7656 Q165.7344,353.9219 164.9688,353.9219 Z " fill="#000000"/><text fill="#000000" font-family="sans-serif" font-size="14" lengthAdjust="spacing" textLength="55" x="179.5" y="352.432">HashSet</text><line style="stroke:#181818;stroke-width:0.5;" x1="151.5" x2="236.5" y1="363" y2="363"/><line style="stroke:#181818;stroke-width:0.5;" x1="151.5" x2="236.5" y1="371" y2="371"/></g><!--MD5=[8c452fe909a389eeab67a697d1b8abd0]
class LinkedHashSet--><g id="elem_LinkedHashSet"><rect codeLine="19" fill="#F1F1F1" height="48" id="LinkedHashSet" rx="2.5" ry="2.5" style="stroke:#181818;stroke-width:0.5;" width="131" x="120.5" y="439"/><ellipse cx="135.5" cy="455" fill="#ADD1B2" rx="11" ry="11" style="stroke:#181818;stroke-width:1.0;"/><path d="M134.9688,461.9219 Q133.2188,461.9219 132.0781,461.1875 Q130.9531,460.4375 130.3906,459.0938 Q129.8438,457.7344 129.8438,455.9375 Q129.8438,453.9063 130.5,452.4531 Q131.1563,451 132.4375,450.2188 Q133.7188,449.4375 135.5938,449.4375 Q136.4844,449.4375 137.1563,449.625 Q137.8281,449.7969 138.5156,450.1406 L137.7031,452.1563 Q137.0781,451.8438 136.5313,451.7188 Q136,451.5938 135.5156,451.5938 Q134.3438,451.5938 133.6406,452.125 Q132.9375,452.6563 132.6406,453.6094 Q132.3438,454.5625 132.3438,455.8281 Q132.3438,457.8438 133.0625,458.8125 Q133.7813,459.7656 135.375,459.7656 Q135.9688,459.7656 136.5938,459.6094 Q137.2188,459.4531 138.0469,459.0781 L138.0469,461.2969 Q137.3125,461.6094 136.5156,461.7656 Q135.7344,461.9219 134.9688,461.9219 Z " fill="#000000"/><text fill="#000000" font-family="sans-serif" font-size="14" lengthAdjust="spacing" textLength="99" x="149.5" y="460.432">LinkedHashSet</text><line style="stroke:#181818;stroke-width:0.5;" x1="121.5" x2="250.5" y1="471" y2="471"/><line style="stroke:#181818;stroke-width:0.5;" x1="121.5" x2="250.5" y1="479" y2="479"/></g><!--MD5=[95f770ba5087db94578937ba4821175f]
class TreeSet--><g id="elem_TreeSet"><rect codeLine="20" fill="#F1F1F1" height="48" id="TreeSet" rx="2.5" ry="2.5" style="stroke:#181818;stroke-width:0.5;" width="83" x="302.5" y="547"/><ellipse cx="317.5" cy="563" fill="#ADD1B2" rx="11" ry="11" style="stroke:#181818;stroke-width:1.0;"/><path d="M316.9688,569.9219 Q315.2188,569.9219 314.0781,569.1875 Q312.9531,568.4375 312.3906,567.0938 Q311.8438,565.7344 311.8438,563.9375 Q311.8438,561.9063 312.5,560.4531 Q313.1563,559 314.4375,558.2188 Q315.7188,557.4375 317.5938,557.4375 Q318.4844,557.4375 319.1563,557.625 Q319.8281,557.7969 320.5156,558.1406 L319.7031,560.1563 Q319.0781,559.8438 318.5313,559.7188 Q318,559.5938 317.5156,559.5938 Q316.3438,559.5938 315.6406,560.125 Q314.9375,560.6563 314.6406,561.6094 Q314.3438,562.5625 314.3438,563.8281 Q314.3438,565.8438 315.0625,566.8125 Q315.7813,567.7656 317.375,567.7656 Q317.9688,567.7656 318.5938,567.6094 Q319.2188,567.4531 320.0469,567.0781 L320.0469,569.2969 Q319.3125,569.6094 318.5156,569.7656 Q317.7344,569.9219 316.9688,569.9219 Z " fill="#000000"/><text fill="#000000" font-family="sans-serif" font-size="14" lengthAdjust="spacing" textLength="51" x="331.5" y="568.432">TreeSet</text><line style="stroke:#181818;stroke-width:0.5;" x1="303.5" x2="384.5" y1="579" y2="579"/><line style="stroke:#181818;stroke-width:0.5;" x1="303.5" x2="384.5" y1="587" y2="587"/></g><!--MD5=[58ad62996e9864a74eef0bc3c36e9a50]
class EnumSet--><g id="elem_EnumSet"><rect codeLine="21" fill="#F1F1F1" height="48" id="EnumSet" rx="2.5" ry="2.5" style="stroke:#181818;stroke-width:0.5;" width="92" x="416" y="331"/><ellipse cx="431" cy="347" fill="#ADD1B2" rx="11" ry="11" style="stroke:#181818;stroke-width:1.0;"/><path d="M430.4688,353.9219 Q428.7188,353.9219 427.5781,353.1875 Q426.4531,352.4375 425.8906,351.0938 Q425.3438,349.7344 425.3438,347.9375 Q425.3438,345.9063 426,344.4531 Q426.6563,343 427.9375,342.2188 Q429.2188,341.4375 431.0938,341.4375 Q431.9844,341.4375 432.6563,341.625 Q433.3281,341.7969 434.0156,342.1406 L433.2031,344.1563 Q432.5781,343.8438 432.0313,343.7188 Q431.5,343.5938 431.0156,343.5938 Q429.8438,343.5938 429.1406,344.125 Q428.4375,344.6563 428.1406,345.6094 Q427.8438,346.5625 427.8438,347.8281 Q427.8438,349.8438 428.5625,350.8125 Q429.2813,351.7656 430.875,351.7656 Q431.4688,351.7656 432.0938,351.6094 Q432.7188,351.4531 433.5469,351.0781 L433.5469,353.2969 Q432.8125,353.6094 432.0156,353.7656 Q431.2344,353.9219 430.4688,353.9219 Z " fill="#000000"/><text fill="#000000" font-family="sans-serif" font-size="14" lengthAdjust="spacing" textLength="60" x="445" y="352.432">EnumSet</text><line style="stroke:#181818;stroke-width:0.5;" x1="417" x2="507" y1="363" y2="363"/><line style="stroke:#181818;stroke-width:0.5;" x1="417" x2="507" y1="371" y2="371"/></g><!--MD5=[c1172da09056138921286a9edbf3c2d4]
class PriorityQueue--><g id="elem_PriorityQueue"><rect codeLine="22" fill="#F1F1F1" height="48" id="PriorityQueue" rx="2.5" ry="2.5" style="stroke:#181818;stroke-width:0.5;" width="125" x="543.5" y="331"/><ellipse cx="558.5" cy="347" fill="#ADD1B2" rx="11" ry="11" style="stroke:#181818;stroke-width:1.0;"/><path d="M557.9688,353.9219 Q556.2188,353.9219 555.0781,353.1875 Q553.9531,352.4375 553.3906,351.0938 Q552.8438,349.7344 552.8438,347.9375 Q552.8438,345.9063 553.5,344.4531 Q554.1563,343 555.4375,342.2188 Q556.7188,341.4375 558.5938,341.4375 Q559.4844,341.4375 560.1563,341.625 Q560.8281,341.7969 561.5156,342.1406 L560.7031,344.1563 Q560.0781,343.8438 559.5313,343.7188 Q559,343.5938 558.5156,343.5938 Q557.3438,343.5938 556.6406,344.125 Q555.9375,344.6563 555.6406,345.6094 Q555.3438,346.5625 555.3438,347.8281 Q555.3438,349.8438 556.0625,350.8125 Q556.7813,351.7656 558.375,351.7656 Q558.9688,351.7656 559.5938,351.6094 Q560.2188,351.4531 561.0469,351.0781 L561.0469,353.2969 Q560.3125,353.6094 559.5156,353.7656 Q558.7344,353.9219 557.9688,353.9219 Z " fill="#000000"/><text fill="#000000" font-family="sans-serif" font-size="14" lengthAdjust="spacing" textLength="93" x="572.5" y="352.432">PriorityQueue</text><line style="stroke:#181818;stroke-width:0.5;" x1="544.5" x2="667.5" y1="363" y2="363"/><line style="stroke:#181818;stroke-width:0.5;" x1="544.5" x2="667.5" y1="371" y2="371"/></g><!--MD5=[aec7210a0d4ed053accb1b845a9e224a]
class ArrayDeque--><g id="elem_ArrayDeque"><rect codeLine="23" fill="#F1F1F1" height="48" id="ArrayDeque" rx="2.5" ry="2.5" style="stroke:#181818;stroke-width:0.5;" width="112" x="808" y="439"/><ellipse cx="823" cy="455" fill="#ADD1B2" rx="11" ry="11" style="stroke:#181818;stroke-width:1.0;"/><path d="M822.4688,461.9219 Q820.7188,461.9219 819.5781,461.1875 Q818.4531,460.4375 817.8906,459.0938 Q817.3438,457.7344 817.3438,455.9375 Q817.3438,453.9063 818,452.4531 Q818.6563,451 819.9375,450.2188 Q821.2188,449.4375 823.0938,449.4375 Q823.9844,449.4375 824.6563,449.625 Q825.3281,449.7969 826.0156,450.1406 L825.2031,452.1563 Q824.5781,451.8438 824.0313,451.7188 Q823.5,451.5938 823.0156,451.5938 Q821.8438,451.5938 821.1406,452.125 Q820.4375,452.6563 820.1406,453.6094 Q819.8438,454.5625 819.8438,455.8281 Q819.8438,457.8438 820.5625,458.8125 Q821.2813,459.7656 822.875,459.7656 Q823.4688,459.7656 824.0938,459.6094 Q824.7188,459.4531 825.5469,459.0781 L825.5469,461.2969 Q824.8125,461.6094 824.0156,461.7656 Q823.2344,461.9219 822.4688,461.9219 Z " fill="#000000"/><text fill="#000000" font-family="sans-serif" font-size="14" lengthAdjust="spacing" textLength="80" x="837" y="460.432">ArrayDeque</text><line style="stroke:#181818;stroke-width:0.5;" x1="809" x2="919" y1="471" y2="471"/><line style="stroke:#181818;stroke-width:0.5;" x1="809" x2="919" y1="479" y2="479"/></g><!--MD5=[702f122c79729df12a8a52022932f992]
class HashMap--><g id="elem_HashMap"><rect codeLine="24" fill="#F1F1F1" height="48" id="HashMap" rx="2.5" ry="2.5" style="stroke:#181818;stroke-width:0.5;" width="96" x="155" y="115"/><ellipse cx="170" cy="131" fill="#ADD1B2" rx="11" ry="11" style="stroke:#181818;stroke-width:1.0;"/><path d="M169.4688,137.9219 Q167.7188,137.9219 166.5781,137.1875 Q165.4531,136.4375 164.8906,135.0938 Q164.3438,133.7344 164.3438,131.9375 Q164.3438,129.9063 165,128.4531 Q165.6563,127 166.9375,126.2188 Q168.2188,125.4375 170.0938,125.4375 Q170.9844,125.4375 171.6563,125.625 Q172.3281,125.7969 173.0156,126.1406 L172.2031,128.1563 Q171.5781,127.8438 171.0313,127.7188 Q170.5,127.5938 170.0156,127.5938 Q168.8438,127.5938 168.1406,128.125 Q167.4375,128.6563 167.1406,129.6094 Q166.8438,130.5625 166.8438,131.8281 Q166.8438,133.8438 167.5625,134.8125 Q168.2813,135.7656 169.875,135.7656 Q170.4688,135.7656 171.0938,135.6094 Q171.7188,135.4531 172.5469,135.0781 L172.5469,137.2969 Q171.8125,137.6094 171.0156,137.7656 Q170.2344,137.9219 169.4688,137.9219 Z " fill="#000000"/><text fill="#000000" font-family="sans-serif" font-size="14" lengthAdjust="spacing" textLength="64" x="184" y="136.432">HashMap</text><line style="stroke:#181818;stroke-width:0.5;" x1="156" x2="250" y1="147" y2="147"/><line style="stroke:#181818;stroke-width:0.5;" x1="156" x2="250" y1="155" y2="155"/></g><!--MD5=[0edaf59d72467900525267fa96001854]
class TreeMap--><g id="elem_TreeMap"><rect codeLine="25" fill="#F1F1F1" height="48" id="TreeMap" rx="2.5" ry="2.5" style="stroke:#181818;stroke-width:0.5;" width="92" x="23" y="331"/><ellipse cx="38" cy="347" fill="#ADD1B2" rx="11" ry="11" style="stroke:#181818;stroke-width:1.0;"/><path d="M37.4688,353.9219 Q35.7188,353.9219 34.5781,353.1875 Q33.4531,352.4375 32.8906,351.0938 Q32.3438,349.7344 32.3438,347.9375 Q32.3438,345.9063 33,344.4531 Q33.6563,343 34.9375,342.2188 Q36.2188,341.4375 38.0938,341.4375 Q38.9844,341.4375 39.6563,341.625 Q40.3281,341.7969 41.0156,342.1406 L40.2031,344.1563 Q39.5781,343.8438 39.0313,343.7188 Q38.5,343.5938 38.0156,343.5938 Q36.8438,343.5938 36.1406,344.125 Q35.4375,344.6563 35.1406,345.6094 Q34.8438,346.5625 34.8438,347.8281 Q34.8438,349.8438 35.5625,350.8125 Q36.2813,351.7656 37.875,351.7656 Q38.4688,351.7656 39.0938,351.6094 Q39.7188,351.4531 40.5469,351.0781 L40.5469,353.2969 Q39.8125,353.6094 39.0156,353.7656 Q38.2344,353.9219 37.4688,353.9219 Z " fill="#000000"/><text fill="#000000" font-family="sans-serif" font-size="14" lengthAdjust="spacing" textLength="60" x="52" y="352.432">TreeMap</text><line style="stroke:#181818;stroke-width:0.5;" x1="24" x2="114" y1="363" y2="363"/><line style="stroke:#181818;stroke-width:0.5;" x1="24" x2="114" y1="371" y2="371"/></g><!--MD5=[30609b773d1acd1d8ef4d49cf63668f8]
reverse link Iterable to Collection--><g id="link_Iterable_Collection"><path codeLine="27" d="M630,75.02 C630,88.58 630,103.04 630,114.68 " fill="none" id="Iterable-backto-Collection" style="stroke:#181818;stroke-width:1.0;"/><polygon fill="none" points="623,75,630,55,637,75,623,75" style="stroke:#181818;stroke-width:1.0;"/></g><!--MD5=[0159284274f96a472eb2618ad803aaca]
reverse link Collection to List--><g id="link_Collection_List"><path codeLine="28" d="M695.52,169.3 C743.08,190.57 804.98,218.26 839.91,233.88 " fill="none" id="Collection-backto-List" style="stroke:#181818;stroke-width:1.0;"/><polygon fill="none" points="692.51,175.62,677.11,161.07,698.22,162.84,692.51,175.62" style="stroke:#181818;stroke-width:1.0;"/></g><!--MD5=[1317568493796c4665b61a5c76c851cf]
reverse link Collection to Set--><g id="link_Collection_Set"><path codeLine="29" d="M564.32,170.01 C517.56,191.37 457.27,218.92 423.62,234.3 " fill="none" id="Collection-backto-Set" style="stroke:#181818;stroke-width:1.0;"/><polygon fill="none" points="561.67,163.52,582.77,161.58,567.49,176.26,561.67,163.52" style="stroke:#181818;stroke-width:1.0;"/></g><!--MD5=[92fae5c9076f5680ae937211bfcbd733]
reverse link Set to SortedSet--><g id="link_Set_SortedSet"><path codeLine="30" d="M373.86,288.61 C365.4,302.85 356.19,318.35 348.86,330.68 " fill="none" id="Set-backto-SortedSet" style="stroke:#181818;stroke-width:1.0;"/><polygon fill="none" points="368.09,284.62,384.33,271,380.13,291.77,368.09,284.62" style="stroke:#181818;stroke-width:1.0;"/></g><!--MD5=[aacefb7b0fbbe26874d96b78ab90ff15]
reverse link SortedSet to NavigableSet--><g id="link_SortedSet_NavigableSet"><path codeLine="31" d="M338.65,399.02 C339.8,412.58 341.03,427.04 342.02,438.68 " fill="none" id="SortedSet-backto-NavigableSet" style="stroke:#181818;stroke-width:1.0;"/><polygon fill="none" points="331.67,399.52,336.95,379,345.62,398.34,331.67,399.52" style="stroke:#181818;stroke-width:1.0;"/></g><!--MD5=[ed6173059207d719d56c0a76f1c566ad]
reverse link Collection to Queue--><g id="link_Collection_Queue"><path codeLine="32" d="M630,183.02 C630,196.58 630,211.04 630,222.68 " fill="none" id="Collection-backto-Queue" style="stroke:#181818;stroke-width:1.0;"/><polygon fill="none" points="623,183,630,163,637,183,623,183" style="stroke:#181818;stroke-width:1.0;"/></g><!--MD5=[486bf48800eb60e7ccf4203e83dc9376]
reverse link Queue to Deque--><g id="link_Queue_Deque"><path codeLine="33" d="M684.53,271.79 C731.28,292.18 797.26,320.96 837.48,338.5 " fill="none" id="Queue-backto-Deque" style="stroke:#181818;stroke-width:1.0;"/><polygon fill="none" points="681.65,278.17,666.12,263.75,687.25,265.34,681.65,278.17" style="stroke:#181818;stroke-width:1.0;"/></g><!--MD5=[28c41f865e47ba111c9af5d19c30c58e]
reverse link Map to SortedMap--><g id="link_Map_SortedMap"><path codeLine="34" d="M110.63,72.13 C101.55,86.5 91.62,102.21 83.74,114.68 " fill="none" id="Map-backto-SortedMap" style="stroke:#181818;stroke-width:1.0;"/><polygon fill="none" points="104.86,68.17,121.46,55,116.69,75.65,104.86,68.17" style="stroke:#181818;stroke-width:1.0;"/></g><!--MD5=[11784a6b295422280c30737cbaf60edd]
reverse link SortedMap to NavigableMap--><g id="link_SortedMap_NavigableMap"><path codeLine="35" d="M69,183.02 C69,196.58 69,211.04 69,222.68 " fill="none" id="SortedMap-backto-NavigableMap" style="stroke:#181818;stroke-width:1.0;"/><polygon fill="none" points="62,183,69,163,76,183,62,183" style="stroke:#181818;stroke-width:1.0;"/></g><!--MD5=[de70471c1aeb5b441f3202b5f0dab243]
reverse link List to ArrayList--><g id="link_List_ArrayList"><path codeLine="37" d="M912.39,268.74 C953.12,287.35 1012.58,314.52 1053.38,333.16 " fill="none" id="List-backto-ArrayList" style="stroke:#181818;stroke-width:1.0;"/><polygon fill="none" points="909.35,275.05,894.07,260.37,915.17,262.31,909.35,275.05" style="stroke:#181818;stroke-width:1.0;"/></g><!--MD5=[fbe20c8416b252056ee73c1eb5bf9ec9]
reverse link List to LinkedList--><g id="link_List_LinkedList"><path codeLine="38" d="M827.41,284.81 C811.04,300.04 792.54,317.24 778.08,330.68 " fill="none" id="List-backto-LinkedList" style="stroke:#181818;stroke-width:1.0;"/><polygon fill="none" points="822.85,279.49,842.26,271,832.38,289.75,822.85,279.49" style="stroke:#181818;stroke-width:1.0;"/></g><!--MD5=[a6bd077efebc0bcfaba3d84d80cc2405]
link LinkedList to Deque--><g id="link_LinkedList_Deque"><path codeLine="39" d="M802.69,355 C807.55,355 812.42,355 817.29,355 " fill="none" id="LinkedList-to-Deque" style="stroke:#181818;stroke-width:1.0;"/><polygon fill="none" points="817.29,348,837.29,355,817.29,362,817.29,348" style="stroke:#181818;stroke-width:1.0;"/></g><!--MD5=[e2d511084d1bea030430f1c72f6ea99b]
reverse link List to Vector--><g id="link_List_Vector"><path codeLine="40" d="M906.59,284.81 C922.96,300.04 941.46,317.24 955.92,330.68 " fill="none" id="List-backto-Vector" style="stroke:#181818;stroke-width:1.0;"/><polygon fill="none" points="901.62,289.75,891.74,271,911.15,279.49,901.62,289.75" style="stroke:#181818;stroke-width:1.0;"/></g><!--MD5=[26d229be8d205479de9296b535b7a3ba]
reverse link Vector to Stack--><g id="link_Vector_Stack"><path codeLine="41" d="M984.25,399.02 C985.27,412.58 986.36,427.04 987.24,438.68 " fill="none" id="Vector-backto-Stack" style="stroke:#181818;stroke-width:1.0;"/><polygon fill="none" points="977.26,399.47,982.74,379,991.22,398.42,977.26,399.47" style="stroke:#181818;stroke-width:1.0;"/></g><!--MD5=[368c5c2acb7de74fba431c7d8a072383]
reverse link Set to HashSet--><g id="link_Set_HashSet"><path codeLine="42" d="M354.13,270.8 C319.76,288.65 272.19,313.37 237.83,331.22 " fill="none" id="Set-backto-HashSet" style="stroke:#181818;stroke-width:1.0;"/><polygon fill="none" points="351.19,264.44,372.16,261.42,357.64,276.86,351.19,264.44" style="stroke:#181818;stroke-width:1.0;"/></g><!--MD5=[f80d5d8a7b155c0b623277f7d1d417ef]
reverse link HashSet to LinkedHashSet--><g id="link_HashSet_LinkedHashSet"><path codeLine="43" d="M190.75,399.02 C189.73,412.58 188.64,427.04 187.76,438.68 " fill="none" id="HashSet-backto-LinkedHashSet" style="stroke:#181818;stroke-width:1.0;"/><polygon fill="none" points="183.78,398.42,192.26,379,197.74,399.47,183.78,398.42" style="stroke:#181818;stroke-width:1.0;"/></g><!--MD5=[dae32439ea64fb8daa62dfdeada4e096]
reverse link NavigableSet to TreeSet--><g id="link_NavigableSet_TreeSet"><path codeLine="44" d="M344,507.02 C344,520.58 344,535.04 344,546.68 " fill="none" id="NavigableSet-backto-TreeSet" style="stroke:#181818;stroke-width:1.0;"/><polygon fill="none" points="337,507,344,487,351,507,337,507" style="stroke:#181818;stroke-width:1.0;"/></g><!--MD5=[2d3e7905818210d9e7f364b73b70bcca]
reverse link Set to EnumSet--><g id="link_Set_EnumSet"><path codeLine="45" d="M422.23,288.13 C430.91,302.5 440.39,318.21 447.92,330.68 " fill="none" id="Set-backto-EnumSet" style="stroke:#181818;stroke-width:1.0;"/><polygon fill="none" points="416.23,291.74,411.89,271,428.22,284.5,416.23,291.74" style="stroke:#181818;stroke-width:1.0;"/></g><!--MD5=[852d04d73d4b15a33bf2a1031ee2438e]
reverse link Queue to PriorityQueue--><g id="link_Queue_PriorityQueue"><path codeLine="46" d="M620.37,290.54 C617.27,304.23 613.95,318.9 611.28,330.68 " fill="none" id="Queue-backto-PriorityQueue" style="stroke:#181818;stroke-width:1.0;"/><polygon fill="none" points="613.55,288.96,624.79,271,627.2,292.05,613.55,288.96" style="stroke:#181818;stroke-width:1.0;"/></g><!--MD5=[64d33b8e42c103d6dc59eb1378b2b3fc]
reverse link Deque to ArrayDeque--><g id="link_Deque_ArrayDeque"><path codeLine="47" d="M869.35,399.02 C868.2,412.58 866.97,427.04 865.98,438.68 " fill="none" id="Deque-backto-ArrayDeque" style="stroke:#181818;stroke-width:1.0;"/><polygon fill="none" points="862.38,398.34,871.05,379,876.33,399.52,862.38,398.34" style="stroke:#181818;stroke-width:1.0;"/></g><!--MD5=[88ef7a2e478d2be745fa043201b4c4af]
reverse link Map to HashMap--><g id="link_Map_HashMap"><path codeLine="48" d="M161.37,72.13 C170.45,86.5 180.38,102.21 188.26,114.68 " fill="none" id="Map-backto-HashMap" style="stroke:#181818;stroke-width:1.0;"/><polygon fill="none" points="155.31,75.65,150.54,55,167.14,68.17,155.31,75.65" style="stroke:#181818;stroke-width:1.0;"/></g><!--MD5=[55f5a7dc3e377aff2b82447a45245e1e]
reverse link NavigableMap to TreeMap--><g id="link_NavigableMap_TreeMap"><path codeLine="49" d="M69,291.02 C69,304.58 69,319.04 69,330.68 " fill="none" id="NavigableMap-backto-TreeMap" style="stroke:#181818;stroke-width:1.0;"/><polygon fill="none" points="62,291,69,271,76,291,62,291" style="stroke:#181818;stroke-width:1.0;"/></g><!--MD5=[994e3e3c1496caa1ec88b6d011b99ad4]
@startuml

interface Iterable
interface Collection
interface List
interface Set
interface SortedSet
interface NavigableSet
interface Queue
interface Deque
interface Map
interface SortedMap
interface NavigableMap

class ArrayList
class LinkedList
class Vector
class Stack
class HashSet
class LinkedHashSet
class TreeSet
class EnumSet
class PriorityQueue
class ArrayDeque
class HashMap
class TreeMap

Collection -up-|> Iterable
List -up-|> Collection
Set -up-|> Collection
SortedSet -up-|> Set
NavigableSet -up-|> SortedSet
Queue -up-|> Collection
Deque -up-|> Queue
SortedMap -up-|> Map
NavigableMap -up-|> SortedMap

ArrayList -up-|> List
LinkedList -up-|> List
LinkedList -right-|> Deque
Vector -up-|> List
Stack -up-|> Vector
HashSet -up-|> Set
LinkedHashSet -up-|> HashSet
TreeSet -up-|> NavigableSet
EnumSet -up-|> Set
PriorityQueue -up-|> Queue
ArrayDeque -up-|> Deque
HashMap -up-|> Map
TreeMap -up-|> NavigableMap

@enduml

PlantUML version 1.2022.7(Mon Aug 22 19:01:30 CEST 2022)
(GPL source distribution)
Java Runtime: OpenJDK Runtime Environment
JVM: OpenJDK 64-Bit Server VM
Default Encoding: UTF-8
Language: es
Country: ES
--></g></svg>